<svg xmlns="http://www.w3.org/2000/svg" viewBox="0 0 150 150">
<!-- SVG created with Arrow, by QuiverAI (https://quiver.ai) -->
  <style type="text/css">.cls-0 {fill:#F7B93E;}
.cls-1 {fill:#FA7554;}
.cls-2 {fill:#ED641E;}
.cls-3 {fill:#F7B73E;}
.cls-4 {fill:#051639;}
.cls-5 {fill:#F97454;}
.cls-6 {fill:#E86213;}</style>
  <path class="cls-0" d="m53.5 13.1c-4.2 0.1-7.5 3.2-8.5 6.9v2.3c0.4 4.2 3.8 7.2 8.1 7.1 1.5 0 3.3-0.4 4.6-1 2.2-1.4 4-3.8 4-7.2 0-4.3-3.7-8.1-8.2-8.1z"/>
  <path class="cls-3" d="m54 37.1c-8.9 0-17.8 7.7-17.8 17.6v28.4c0.2 1.9 1.4 3.3 3.5 3.3 1.2 0.1 2.8-0.5 3.5-1.4l0.6-1.6v-27.9c0-5.1 4.1-11 10.2-11 6.3-0.2 10.6 5.1 10.6 11.5l0.1 5.6c0.7-3.2 3.7-7 7.3-7.2-0.4-8.7-8.3-17.3-18-17.3z"/>
  <path class="cls-1" d="m98.5 13.1c-1.3 0.1-2.8 0.4-3.7 1-2.2 1.2-4.2 3.6-4.3 6.4v1.4c0.4 4 3.5 7.4 8 7.4 4.4 0.1 8.1-3.2 8.2-7.4v-1.6c-0.6-4-3.8-7.2-8.2-7.2z"/>
  <path class="cls-5" d="m97.9 37c-8.7 0-16.5 7-18.2 14.9l-0.1 2.9c3 0 5.8 2.3 7.7 5.6v-4.2c0-5.7 4.3-11.7 10.5-11.7 5.6-0.1 10.5 4.1 10.6 10.8v28.1c0.4 1.7 1.5 3.1 3.7 3.1 1.8 0 3.4-0.7 3.9-2.7v-28.5c0-8.6-7.6-18.3-18.1-18.3z"/>
  <path class="cls-2" d="m81.1 78c-1.3-0.2-2-1.8-2.2-2.1-0.5 1-1.8 1.5-2.9 1.5-2.5 0-3.9-2-3.9-4.4v-18.6c-3.7 0-7 3.6-7.5 7.2v11.8c0.2 2.8 1.1 5.8 3.5 8.6 2.5 2.8 5.4 3.5 8.4 3.5 4 0.1 7.6-2 9.4-5.9-0.7-0.5-1.6-2.2-3.3-1.7l-1.5 0.1z"/>
  <path class="cls-5" d="m79.7 71.2c0 1.4 0.1 3.3-0.8 4.7 0.5 1 1.6 2.4 2.7 2.1 2.2-0.6 2.7-0.2 4.3 1.4 0.7-1.5 1.4-3.7 1.4-5.5v-3c-2 2.2-5.9 1.5-7.6 0.3z"/>
  <path class="cls-6" d="m79.6 54.8v16.2c1.3 1.2 5.8 2.6 7.7 0v-10.6c-1.2-2.2-4.2-5.6-7.7-5.6z"/>
  <path class="cls-3" d="m53.5 13.1c-4.2 0.1-7.7 3-8.5 6.9v1.7c0.1 4 3.4 7.7 8.1 7.7 1.6 0 3.5-0.4 4.6-1 2.2-1.4 4-3.8 4-7.2 0-4.3-3.7-8.1-8.2-8.1z"/>
  <path class="cls-4" d="m2.4 106.4c0-2 1.5-3.8 3.8-3.8 2.2 0.1 3.2 1.8 3.2 3.2l-0.1 1.8c2-3.2 5.6-5.2 10-5.2 8.3-0.2 13.2 5.2 13.2 13.1v17.6c-0.2 2-1.5 3.3-3.6 3.3-2 0-3.7-1.3-3.7-3.5v-15.5c0-5.3-2.6-8.4-7.8-8.4-4.8 0-8.1 2.7-8.1 7.9v16.1c0 2.4-1.7 3.4-3.5 3.5s-3.3-1-3.4-3.1v-27z"/>
  <path class="cls-4" d="m49.7 121.9c0.4 4.8 4.2 8.8 9.7 8.8 3.3 0 5.5-1.1 7.2-2.7 0.7-0.9 1.5-1.3 2.4-1.3 2 0 3.7 1.4 3.7 3 0 1.4-2.3 3.7-5.8 5.5-1.9 0.8-4.3 1.4-8.3 1.5-9.3 0-17.3-5.6-17.3-17.1 0-9.6 6.4-17.2 16.6-17.2 9-0.2 16.5 6 16.6 16.7 0 1.9-0.9 2.9-2.9 2.9l-21.9-0.1zm17.4-5.3c-0.5-4.4-3.5-8-8.7-8-4.8-0.1-8 3.5-8.6 8h17.3z"/>
  <path class="cls-4" d="m95.8 124.9-6.8 9.2c-0.9 1.1-1.7 2.1-3.6 2.1h-4.4c-1.3 0-1.9-1.2-0.9-2.5l10.9-14.3-11-14.2c-0.9-1.2-0.4-2.5 1-2.5h4.4c2 0 3.1 0.9 4 2.3l6.4 8.9 6.3-8.5c1-1.4 2-2.5 3.8-2.7h4.2c2-0.2 2.3 1.3 1 2.7l-10.5 14 11.3 14.7c1 1.3 0.5 2.1-1.3 2.1h-4.5c-1.7-0.1-2.5-0.8-3.2-1.7l-7.1-9.6z"/>
  <path class="cls-4" d="m140.9 132.2c-1.8 2.4-5.2 4.5-10.3 4.5-7.5 0.3-12.6-4.1-12.5-9.8-0.1-5.5 4.6-10.4 13.6-10.5h9c0-4.5-2.7-7.8-7.6-7.8-3.1-0.1-5.2 0.6-6.7 2.9-0.5 1-1.3 1.4-3 1.4-1.5 0-3.8-1.3-3.8-3.3 0.3-3 5.8-7.2 13.8-7.2 9.2 0 14.5 5 14.3 14v17.3c0 1.7-1.3 2.8-3.1 2.8-2 0.1-3.5-1.3-3.5-3.1v-1.2zm-0.2-10.8h-6.7c-4.9 0-7.9 1.2-7.9 4.8 0 2.4 2.5 4.9 7 4.9 4.5-0.1 7.6-3.1 7.6-7.2v-2.5z"/>
</svg>
